Coordinates
version=1
nRows=14
nColumns=42
inDegrees=yes

Units are S.I. units (second, meters, Newtons, ...)
If the header above contains a line with 'inDegrees', this indicates whether rotational values are in degrees (yes) or radians (no).

endheader
time	pelvis_tilt	pelvis_list	pelvis_rotation	pelvis_tx	pelvis_ty	pelvis_tz	hip_flexion_r	hip_adduction_r	hip_rotation_r	knee_angle_r	knee_adduction_r	knee_angle_r_beta	ankle_angle_r	subtalar_angle_r	mtp_angle_r	hip_flexion_l	hip_adduction_l	hip_rotation_l	knee_angle_l	knee_adduction_l	knee_angle_l_beta	ankle_angle_l	subtalar_angle_l	mtp_angle_l	lumbar_extension	lumbar_bending	lumbar_rotation	arm_flex_r	arm_add_r	arm_rot_r	elbow_flex_r	pro_sup_r	wrist_flex_r	wrist_dev_r	arm_flex_l	arm_add_l	arm_rot_l	elbow_flex_l	pro_sup_l	wrist_flex_l	wrist_dev_l
      1.27000000	     -2.83047534	     -0.59234714	      9.58222950	     -0.16520447	      0.85980013	      0.14502746	     26.52391386	     -6.05130947	    -11.49284855	      7.64147825	      9.28558168	      0.13336896	      0.46923282	     -5.63333901	     -7.55483969	    -10.96119512	    -11.09611385	      3.92662468	     11.26656853	     23.43808022	      0.19663872	     17.56830322	      6.78037742	     -7.55483969	    -11.23327121	      2.14330852	     -5.80588204	     -8.91220404	    -14.66786127	    -11.00277280	     25.23282481	     90.00000001	      0.00000000	      0.00000000	      3.01904405	    -21.16195055	      1.94555711	     45.57676854	     90.00000001	      0.00000000	      0.00000000
      1.28000000	     -2.78951276	     -0.89085099	      9.77452740	     -0.15310345	      0.85911743	      0.14527666	     26.46868498	     -5.80575290	    -11.69244658	      8.87724628	      9.38114189	      0.15493718	     -0.49385693	     -6.40255914	     -7.55384463	    -11.31575682	    -11.66548769	      4.47322011	     12.01545009	     23.52742316	      0.20970917	     17.21368364	      6.50371602	     -7.55384463	    -11.19462379	      2.70182801	     -5.90764315	     -8.87777588	    -14.75632600	    -11.14146290	     25.14395252	     90.00000001	      0.00000000	      0.00000000	      2.64933322	    -20.92846620	      1.65945800	     45.21070505	     90.00000001	      0.00000000	      0.00000000
      1.29000000	     -2.74627264	     -1.10276946	      9.85577874	     -0.14081404	      0.85876409	      0.14546756	     26.23832699	     -5.61039487	    -11.18651666	      9.75025588	      9.57941501	      0.17017407	     -0.81520289	     -6.36990681	     -7.55346882	    -11.69588599	    -11.97199142	      5.18482968	     12.71191616	     23.36481162	      0.22186479	     16.95806036	      6.48632669	     -7.55346882	    -11.16091679	      3.18319310	     -5.85478928	     -9.03060432	    -14.81326639	    -11.17721335	     25.13419660	     90.00000001	      0.00000000	      0.00000000	      2.11758744	    -20.70389522	      1.65481816	     44.99495682	     90.00000001	      0.00000000	      0.00000000
      1.30000000	     -2.64755988	     -1.62088342	     10.08172344	     -0.12878697	      0.85870422	      0.14590428	     26.27892652	     -5.21416385	    -12.10819241	     11.53434710	      9.61395528	      0.20131233	     -2.22923155	     -7.75067464	     -7.55231464	    -11.61022706	    -12.91021694	      5.48089388	     14.39615641	     23.68700822	      0.25126033	     15.90982801	      5.54848604	     -7.55231464	    -11.18465155	      4.00126858	     -6.00881344	     -8.77153622	    -14.93310760	    -11.30069939	     24.97687451	     90.00000001	      0.00000000	      0.00000000	      1.85488327	    -20.35668140	      1.23546357	     44.19090738	     90.00000001	      0.00000000	      0.00000000
      1.31000000	     -2.70939777	     -1.95298378	     10.14473011	     -0.11687352	      0.85889058	      0.14625824	     26.34850581	     -4.98426546	    -11.70084035	     12.88415774	      9.85597792	      0.22487097	     -3.03416694	     -8.91746576	     -7.55074996	    -11.29480878	    -13.41453644	      6.04086701	     16.13689934	     23.77088772	      0.28164202	     14.82996151	      4.65394271	     -7.55074996	    -11.07505768	      4.59753781	     -5.96302636	     -8.56424552	    -15.02282797	    -11.44928835	     24.64944463	     90.00000001	      0.00000000	      0.00000000	      1.57483369	    -19.87934326	      0.76040099	     43.23539810	     90.00000001	      0.00000000	      0.00000000
      1.32000000	     -2.70159361	     -2.28037713	     10.15653473	     -0.10498943	      0.85949745	      0.14673651	     26.22847476	     -4.71521789	    -10.70468916	     13.98541313	     10.27569122	      0.24409151	     -3.75534991	    -10.72958010	     -7.54749216	    -10.88123729	    -13.94041910	      6.64966852	     18.15321683	     23.94900924	      0.31683340	     13.46124330	      3.69940768	     -7.54749216	    -11.07697672	      5.17641187	     -5.88895281	     -8.21620525	    -15.06626244	    -11.69028034	     24.18055471	     90.00000001	      0.00000000	      0.00000000	      1.33683099	    -19.35805306	      0.18289479	     42.08726441	     90.00000001	      0.00000000	      0.00000000
      1.33000000	     -2.61282779	     -2.64222604	     10.15798400	     -0.09315441	      0.86037664	      0.14729489	     26.09597698	     -4.40167672	    -10.25591865	     15.33572156	     10.60418575	      0.26765883	     -3.60716514	    -11.22203230	     -7.54625737	    -10.33407626	    -14.56778986	      7.17972163	     20.54239007	     24.22302871	      0.35853234	     11.67553255	      2.90879588	     -7.54625737	    -11.18741171	      5.80245982	     -5.76151075	     -8.03455032	    -15.17848947	    -11.70240053	     24.18907131	     90.00000001	      0.00000000	      0.00000000	      0.86926272	    -19.01730981	      0.11682670	     41.55690888	     90.00000001	      0.00000000	      0.00000000
      1.34000000	     -2.52933889	     -2.93132212	     10.13801845	     -0.08146087	      0.86150393	      0.14800514	     25.83806320	     -4.13576923	     -9.58493518	     16.42786645	     11.05531182	      0.28672036	     -3.33451828	    -11.80011580	     -7.54559599	     -9.57804218	    -15.16428590	      7.87279803	     23.19053578	     24.66736900	      0.40475120	      9.56994698	      2.00531551	     -7.54559599	    -11.34069783	      6.30144420	     -5.58392444	     -7.76958881	    -15.22430053	    -11.69750179	     24.06152921	     90.00000001	      0.00000000	      0.00000000	      0.45156408	    -18.68683505	      0.01155989	     40.86211058	     90.00000001	      0.00000000	      0.00000000
      1.35000000	     -2.55101660	     -3.20619214	     10.01330073	     -0.06991310	      0.86272030	      0.14876387	     25.62491334	     -3.79997503	     -8.95428179	     17.36662869	     11.39947571	      0.30310485	     -2.95324198	    -12.29187393	     -7.54480723	     -8.45259140	    -15.65316004	      8.30213942	     26.38155508	     24.96660388	      0.46044500	      6.88144042	      0.82381877	     -7.54480723	    -11.38333975	      6.78138148	     -5.36414546	     -7.46077569	    -15.31467061	    -11.68756886	     23.90800053	     90.00000001	      0.00000000	      0.00000000	      0.05169071	    -18.27809572	     -0.14248184	     40.01296642	     90.00000001	      0.00000000	      0.00000000
      1.36000000	     -2.53332455	     -3.43277672	      9.89336438	     -0.05846044	      0.86410590	      0.14965279	     25.21388828	     -3.46240210	     -8.48216107	     18.03555072	     11.71297028	      0.31477974	     -2.42011211	    -12.50681296	     -7.54404446	     -7.22630439	    -16.15289947	      8.85072083	     29.68982433	     25.39158309	      0.51818519	      4.01669260	     -0.23235583	     -7.54404446	    -11.49837601	      7.16312597	     -5.09930541	     -7.14170218	    -15.36116952	    -11.66770400	     23.81375058	     90.00000001	      0.00000000	      0.00000000	     -0.36016091	    -17.91227749	     -0.28535100	     39.20793721	     90.00000001	      0.00000000	      0.00000000
      1.37000000	     -2.51357885	     -3.63956383	      9.78704968	     -0.04709905	      0.86554832	      0.15061964	     24.62903129	     -3.10118710	     -8.29764941	     18.41204269	     11.95017850	      0.32135077	     -1.72796970	    -12.46758503	     -7.54340305	     -5.85426887	    -16.65660913	      9.54117674	     33.09747652	     25.90482795	      0.57765994	      1.02479803	     -1.21191998	     -7.54340305	    -11.62135796	      7.48560129	     -4.83804743	     -6.86596243	    -15.37036587	    -11.64298233	     23.78883302	     90.00000001	      0.00000000	      0.00000000	     -0.81748390	    -17.58076465	     -0.38166255	     38.49143923	     90.00000001	      0.00000000	      0.00000000
      1.38000000	     -2.57445778	     -3.76554021	      9.51171534	     -0.03596492	      0.86695417	      0.15169839	     24.14222879	     -2.72291879	     -8.23319558	     18.82448478	     11.99379318	      0.32854924	     -1.05748200	    -11.92542460	     -7.54230681	     -4.31391996	    -16.95042111	      9.79590628	     36.73064622	     26.08755082	      0.64107071	     -2.19423436	     -2.55842095	     -7.54230681	    -11.70998407	      7.68518845	     -4.41796060	     -6.53841734	    -15.45019548	    -11.60429437	     23.80891837	     90.00000001	      0.00000000	      0.00000000	     -1.19678779	    -17.21263907	     -0.51911088	     37.62528944	     90.00000001	      0.00000000	      0.00000000
      1.39000000	     -2.60094013	     -3.86039950	      9.35335097	     -0.02493770	      0.86840353	      0.15271792	     23.46013417	     -2.41209365	     -8.63446968	     19.00845900	     11.97485016	      0.33176020	     -0.08913263	    -10.88374654	     -7.54064825	     -2.71758501	    -17.21601007	     10.40263003	     40.20904676	     26.35899010	      0.70178025	     -5.07514525	     -3.70288044	     -7.54064825	    -11.82326410	      7.83773310	     -4.09797978	     -6.26025467	    -15.46820010	    -11.53081865	     23.97481420	     90.00000001	      0.00000000	      0.00000000	     -1.60565975	    -16.89875254	     -0.59740097	     36.83574176	     90.00000001	      0.00000000	      0.00000000
      1.40000000	     -2.63995784	     -3.96862561	      9.19781445	     -0.01406686	      0.86981217	      0.15373887	     22.72427234	     -2.07645077	     -9.17537526	     19.05670326	     11.88812978	      0.33260222	      0.97113767	     -9.56028641	     -7.53861195	     -1.05714503	    -17.47949811	     11.13786497	     43.55293601	     26.68929755	      0.76014213	     -7.42688608	     -4.65842845	     -7.53861195	    -11.92409129	      7.98239856	     -3.78457205	     -6.00172333	    -15.53152094	    -11.40730770	     24.28219940	     90.00000001	      0.00000000	      0.00000000	     -2.08444499	    -16.63900066	     -0.56568765	     36.20508133	     90.00000001	      0.00000000	      0.00000000
